<?xml version="1.0" encoding="UTF-8" standalone="no"?>
<!-- Created with Inkscape (http://www.inkscape.org/) -->

<svg
   xmlns:dc="http://purl.org/dc/elements/1.1/"
   xmlns:cc="http://creativecommons.org/ns#"
   xmlns:rdf="http://www.w3.org/1999/02/22-rdf-syntax-ns#"
   xmlns:svg="http://www.w3.org/2000/svg"
   xmlns="http://www.w3.org/2000/svg"
   xmlns:sodipodi="http://sodipodi.sourceforge.net/DTD/sodipodi-0.dtd"
   xmlns:inkscape="http://www.inkscape.org/namespaces/inkscape"
   width="300"
   height="300"
   id="svg2"
   version="1.1"
   inkscape:version="0.48.5 r10040"
   sodipodi:docname="logo.svg">
  <defs
     id="defs4" />
  <sodipodi:namedview
     id="base"
     pagecolor="#ffffff"
     bordercolor="#666666"
     borderopacity="1.0"
     inkscape:pageopacity="0.0"
     inkscape:pageshadow="2"
     inkscape:zoom="0.48750832"
     inkscape:cx="290.94357"
     inkscape:cy="619.35389"
     inkscape:document-units="px"
     inkscape:current-layer="layer1"
     showgrid="false"
     inkscape:window-width="1317"
     inkscape:window-height="837"
     inkscape:window-x="105"
     inkscape:window-y="22"
     inkscape:window-maximized="0" />
  <metadata
     id="metadata7">
    <rdf:RDF>
      <cc:Work
         rdf:about="">
        <dc:format>image/svg+xml</dc:format>
        <dc:type
           rdf:resource="http://purl.org/dc/dcmitype/StillImage" />
        <dc:title></dc:title>
      </cc:Work>
    </rdf:RDF>
  </metadata>
  <g
     inkscape:label="Layer 1"
     inkscape:groupmode="layer"
     id="layer1"
     transform="translate(0,-752.36218)">
    <rect
       style="fill:#f0ad4e;fill-opacity:1;stroke:none"
       id="rect3079"
       width="299.37415"
       height="296.89072"
       x="0.83671033"
       y="755.17938" />
    <path
       style="fill:#000000"
       d="m 67.539515,980.48271 c -1.81716,-1.80753 -2.503837,-17.07685 -2.503837,-55.67602 0,-52.5035 0.0603,-53.24031 4.694695,-57.46535 9.572754,-8.727 81.587327,-58.70788 84.588807,-58.70788 4.27739,0 87.22835,59.16014 88.85192,63.36869 2.25819,5.85354 1.48592,102.60817 -0.85368,106.95662 -2.08125,3.86823 -5.25906,4.01451 -87.217,4.01451 -63.373461,0 -85.695379,-0.63493 -87.560905,-2.49057 z M 239.81969,926.15479 c 0.4127,-38.14076 -0.10328,-52.42305 -1.97448,-54.66589 -6.07341,-7.27923 -81.51274,-59.05533 -84.79252,-58.19546 -1.93187,0.5065 -21.58708,13.76979 -43.67823,29.47401 l -40.16572,28.55311 0,53.77416 0,53.77417 85.02614,-0.54214 85.02615,-0.54215 0.55866,-51.62981 z m -72.11863,26.78734 c -25.88757,-12.34054 -53.4042,-44.07228 -57.98827,-66.87116 -1.02567,-5.10124 -0.0146,-7.68471 5.41518,-13.83608 8.09259,-9.1681 14.48908,-9.71087 21.87379,-1.85608 7.44547,7.91943 8.65792,14.33267 4.24916,22.47583 -3.58174,6.61566 -3.56108,6.97359 0.75038,12.99637 5.87004,8.20003 25.02441,25.23542 28.37438,25.23542 1.45675,0 3.81752,-1.40095 5.24614,-3.11321 3.76423,-4.51158 13.11888,-3.81912 20.06229,1.48506 7.53447,5.75569 9.07708,7.90988 9.1172,12.73194 0.0415,4.98979 -13.01004,17.95285 -18.07541,17.95285 -2.15542,0 -10.71661,-3.24042 -19.02484,-7.20094 z m 26.53947,-2.32319 c 8.03153,-6.72229 8.13713,-11.80697 0.35961,-17.31572 -7.09014,-5.02186 -12.19294,-5.34073 -17.81222,-1.11305 -2.22762,1.67596 -5.49312,3.04721 -7.2567,3.04721 -1.76356,0 -10.50402,-7.2163 -19.42325,-16.03624 -16.47308,-16.28969 -19.36115,-22.36921 -13.08697,-27.54872 4.34005,-3.58285 3.90957,-9.68503 -1.18534,-16.80227 -5.43892,-7.59777 -10.06125,-7.62178 -17.3156,-0.0899 -6.57921,6.8308 -6.21934,11.14904 2.34962,28.1954 5.26013,10.46402 23.81002,31.3529 34.70571,39.0818 5.47811,3.88593 27.43542,13.78609 30.84062,13.90549 0.77267,0.027 4.29369,-2.36868 7.82449,-5.32392 z"
       id="path3077"
       inkscape:connector-curvature="0" />
    <path
       style="fill:#ffffff;fill-opacity:1;stroke:none"
       d="m 69.770893,925.12998 0.02337,-53.73846 8.76848,-6.20255 c 30.103948,-21.29464 47.470208,-33.41769 60.093078,-41.94986 l 14.3537,-9.70209 4.99917,2.80639 c 11.69314,6.56423 57.84742,38.1501 71.34488,48.82513 10.58312,8.37012 9.42899,1.19209 9.74076,60.58189 l 0.27261,51.92975 -50.31858,9.1e-4 c -27.67523,0.001 -65.83961,0.26842 -84.80973,0.5945 l -34.491148,0.59286 0.02337,-53.73847 z m 121.259187,33.84518 c 3.69273,-2.26088 10.05174,-8.53834 12.20085,-12.04431 3.30757,-5.39594 1.87842,-10.65816 -4.21753,-15.52934 -5.19705,-4.15288 -9.00219,-5.83983 -14.4294,-6.39699 -4.45001,-0.45685 -5.24615,-0.24808 -8.8378,2.3176 -2.17099,1.55082 -4.732,2.81968 -5.69114,2.81968 -3.699,0 -27.46778,-22.68711 -29.90789,-28.54688 -1.14582,-2.75158 -1.04915,-3.36455 1.30251,-8.25871 4.35374,-9.06081 3.10799,-15.74461 -4.33305,-23.24788 -6.17973,-6.23138 -10.47174,-6.96506 -16.92119,-2.89248 -4.58336,2.8942 -8.78469,7.98246 -10.36392,12.5518 -3.28838,9.51455 9.33169,33.04018 27.51938,51.30005 11.83727,11.88425 24.07725,20.01508 39.87323,26.48716 8.65272,3.54526 10.1182,3.69814 13.80595,1.4403 l 0,0 z"
       id="path3851"
       inkscape:connector-curvature="0" />
  </g>
</svg>
