<?xml version="1.0" encoding="UTF-8" standalone="no"?>
<!-- Created with Inkscape (http://www.inkscape.org/) -->

<svg
   xmlns:dc="http://purl.org/dc/elements/1.1/"
   xmlns:cc="http://creativecommons.org/ns#"
   xmlns:rdf="http://www.w3.org/1999/02/22-rdf-syntax-ns#"
   xmlns:svg="http://www.w3.org/2000/svg"
   xmlns="http://www.w3.org/2000/svg"
   xmlns:sodipodi="http://sodipodi.sourceforge.net/DTD/sodipodi-0.dtd"
   xmlns:inkscape="http://www.inkscape.org/namespaces/inkscape"
   width="1200"
   height="1200"
   id="svg2"
   version="1.1"
   inkscape:version="0.48.5 r10040"
   sodipodi:docname="splash.svg">
  <defs
     id="defs4" />
  <sodipodi:namedview
     id="base"
     pagecolor="#ffffff"
     bordercolor="#666666"
     borderopacity="1.0"
     inkscape:pageopacity="0.0"
     inkscape:pageshadow="2"
     inkscape:zoom="0.48750832"
     inkscape:cx="290.94357"
     inkscape:cy="619.35389"
     inkscape:document-units="px"
     inkscape:current-layer="layer1"
     showgrid="false"
     inkscape:window-width="1317"
     inkscape:window-height="837"
     inkscape:window-x="105"
     inkscape:window-y="22"
     inkscape:window-maximized="0" />
  <metadata
     id="metadata7">
    <rdf:RDF>
      <cc:Work
         rdf:about="">
        <dc:format>image/svg+xml</dc:format>
        <dc:type
           rdf:resource="http://purl.org/dc/dcmitype/StillImage" />
        <dc:title />
      </cc:Work>
    </rdf:RDF>
  </metadata>
  <g
     inkscape:label="Layer 1"
     inkscape:groupmode="layer"
     id="layer1"
     transform="translate(0,147.63782)">
    <rect
       style="fill:#f0ad4e;fill-opacity:1;stroke:none"
       id="rect3079"
       width="1199.8716"
       height="1201.4907"
       x="0.83671033"
       y="-149.42056" />
    <path
       style="fill:#000000"
       d="m 434.16188,622.99292 c -3.60384,-3.60437 -4.96568,-34.05273 -4.96568,-111.02286 0,-104.69657 0.11959,-106.16583 9.31065,-114.59093 18.98493,-17.40241 161.80613,-117.06866 167.75875,-117.06866 8.48303,0 172.99355,117.9705 176.21345,126.36272 4.47851,11.67247 2.94692,204.60967 -1.69304,213.28086 -4.12759,7.71359 -10.4299,8.00529 -172.97104,8.00529 -125.6839,0 -169.95332,-1.26611 -173.65309,-4.96642 z M 775.83245,514.65829 c 0.81848,-76.05601 -0.20483,-104.53615 -3.91584,-109.00857 -12.04495,-14.51542 -161.6582,-117.76149 -168.16275,-116.04684 -3.83133,1.01001 -42.81206,27.45817 -86.62381,58.77376 l -79.65771,56.9374 0,107.23038 0,107.2304 168.62607,-1.08107 168.62609,-1.0811 1.10795,-102.95436 z m -143.02756,53.4163 C 581.46398,543.46648 526.89228,480.19061 517.80103,434.72765 c -2.03413,-10.17232 -0.029,-15.32399 10.73953,-27.59036 16.04944,-18.28199 28.73513,-19.36432 43.38068,-3.70118 14.76605,15.79203 17.17061,28.5806 8.42704,44.81877 -7.1034,13.1922 -7.06243,13.90595 1.48817,25.9159 11.64162,16.35158 49.62907,50.32164 56.27282,50.32164 2.88906,0 7.571,-2.79362 10.40428,-6.20802 7.46532,-8.99648 26.01771,-7.61566 39.78806,2.96134 14.94256,11.47735 18.0019,15.773 18.08147,25.38861 0.0823,9.95007 -25.80185,35.79955 -35.84763,35.79955 -4.27468,0 -21.25346,-6.46168 -37.73056,-14.35931 z m 52.63377,-4.63264 c 15.92835,-13.40483 16.13777,-23.54413 0.71319,-34.52906 -14.06135,-10.01403 -24.18136,-10.64988 -35.32566,-2.21952 -4.41787,3.34201 -10.8941,6.0764 -14.39168,6.0764 -3.49753,0 -20.83184,-14.38993 -38.5207,-31.97766 -32.66984,-32.48307 -38.39754,-44.60617 -25.95442,-54.93456 8.6073,-7.14452 7.75356,-19.3128 -2.35079,-33.5052 -10.78661,-15.15062 -19.95374,-15.1985 -34.34076,-0.17927 -13.04806,13.62122 -12.33435,22.23216 4.65983,56.2241 10.43203,20.86617 47.22066,62.52043 68.82928,77.93253 10.86433,7.74888 54.41064,27.49067 61.16392,27.72876 1.53238,0.0538 8.51536,-4.72335 15.51774,-10.61636 z"
       id="path3077"
       inkscape:connector-curvature="0" />
    <path
       style="fill:#ffffff;fill-opacity:1;stroke:none"
       d="m 438.58721,512.61473 0.0464,-107.15919 17.38988,-12.36843 c 59.70294,-42.46337 94.14416,-66.6378 119.17817,-83.65169 l 28.46663,-19.34682 9.91449,5.59619 c 23.19014,13.08965 114.72452,76.07464 141.49304,97.36158 20.98872,16.69075 18.69982,2.37713 19.31813,120.80559 l 0.54064,103.55247 -99.79312,0.002 c -54.88624,0.002 -130.57484,0.53525 -168.19688,1.18548 l -68.40376,1.18222 0.0464,-107.15922 z m 240.48441,67.49025 c 7.32352,-4.50839 19.93487,-17.02619 24.19704,-24.0174 6.55966,-10.75998 3.72533,-21.25331 -8.36431,-30.96687 -10.30693,-8.2812 -17.85338,-11.64513 -28.61677,-12.75616 -8.82538,-0.91099 -10.4043,-0.49469 -17.52736,4.6215 -4.30556,3.09247 -9.38462,5.62269 -11.28681,5.62269 -7.33596,0 -54.47482,-45.24008 -59.31411,-56.92498 -2.27243,-5.48689 -2.08071,-6.7092 2.58317,-16.46859 8.63445,-18.06805 6.16384,-31.39613 -8.59342,-46.35831 -12.2558,-12.42591 -20.76783,-13.88893 -33.55855,-5.76785 -9.08984,5.77128 -17.42203,15.91772 -20.554,25.02938 -6.5216,18.97285 18.50686,65.88502 54.57716,102.29679 23.47598,23.69824 47.75063,39.91183 79.07763,52.81772 17.16031,7.06956 20.06668,7.37442 27.38033,2.87208 l 0,0 z"
       id="path3851"
       inkscape:connector-curvature="0" />
  </g>
</svg>
